<mxfile host="Electron" agent="Mozilla/5.0 (Windows NT 10.0; Win64; x64) AppleWebKit/537.36 (KHTML, like Gecko) draw.io/24.7.8 Chrome/128.0.6613.36 Electron/32.0.1 Safari/537.36" version="24.7.8">
  <diagram name="第 1 页" id="yGpQJ5RgWdE0CJdaR095">
    <mxGraphModel dx="523" dy="427" grid="0" gridSize="10" guides="1" tooltips="1" connect="1" arrows="1" fold="1" page="0" pageScale="1" pageWidth="827" pageHeight="1169" math="0" shadow="0">
      <root>
        <mxCell id="0" />
        <mxCell id="1" parent="0" />
        <mxCell id="NB4CAS0sDc5IZvhmyKRq-1" value="TO_WORKSHOP" style="rounded=1;whiteSpace=wrap;html=1;" vertex="1" parent="1">
          <mxGeometry width="120" height="40" as="geometry" />
        </mxCell>
        <mxCell id="NB4CAS0sDc5IZvhmyKRq-14" style="rounded=0;orthogonalLoop=1;jettySize=auto;html=1;startArrow=classic;startFill=1;" edge="1" parent="1" source="NB4CAS0sDc5IZvhmyKRq-2" target="NB4CAS0sDc5IZvhmyKRq-3">
          <mxGeometry relative="1" as="geometry" />
        </mxCell>
        <mxCell id="NB4CAS0sDc5IZvhmyKRq-2" value="TO_CHARGE" style="rounded=1;whiteSpace=wrap;html=1;" vertex="1" parent="1">
          <mxGeometry x="160" width="120" height="40" as="geometry" />
        </mxCell>
        <mxCell id="NB4CAS0sDc5IZvhmyKRq-10" style="edgeStyle=orthogonalEdgeStyle;rounded=0;orthogonalLoop=1;jettySize=auto;html=1;startArrow=classic;startFill=1;" edge="1" parent="1" source="NB4CAS0sDc5IZvhmyKRq-3" target="NB4CAS0sDc5IZvhmyKRq-1">
          <mxGeometry relative="1" as="geometry" />
        </mxCell>
        <mxCell id="NB4CAS0sDc5IZvhmyKRq-3" value="LOAD" style="rounded=1;whiteSpace=wrap;html=1;" vertex="1" parent="1">
          <mxGeometry y="80" width="120" height="40" as="geometry" />
        </mxCell>
        <mxCell id="NB4CAS0sDc5IZvhmyKRq-9" style="rounded=0;orthogonalLoop=1;jettySize=auto;html=1;startArrow=classic;startFill=1;" edge="1" parent="1" source="NB4CAS0sDc5IZvhmyKRq-4" target="NB4CAS0sDc5IZvhmyKRq-1">
          <mxGeometry relative="1" as="geometry" />
        </mxCell>
        <mxCell id="NB4CAS0sDc5IZvhmyKRq-13" style="edgeStyle=orthogonalEdgeStyle;rounded=0;orthogonalLoop=1;jettySize=auto;html=1;startArrow=classic;startFill=1;" edge="1" parent="1" source="NB4CAS0sDc5IZvhmyKRq-4" target="NB4CAS0sDc5IZvhmyKRq-2">
          <mxGeometry relative="1" as="geometry" />
        </mxCell>
        <mxCell id="NB4CAS0sDc5IZvhmyKRq-4" value="UNLOAD" style="rounded=1;whiteSpace=wrap;html=1;" vertex="1" parent="1">
          <mxGeometry x="160" y="80" width="120" height="40" as="geometry" />
        </mxCell>
      </root>
    </mxGraphModel>
  </diagram>
</mxfile>
